<?xml version="1.0" encoding="UTF-8"?>
<svg width="84px" height="88px" viewBox="0 0 84 88" version="1.1" xmlns="http://www.w3.org/2000/svg" xmlns:xlink="http://www.w3.org/1999/xlink">
    <!-- Generator: Sketch 49 (51002) - http://www.bohemiancoding.com/sketch -->
    <title>chat</title>
    <desc>Created with Sketch.</desc>
    <defs></defs>
    <g id="Layout" stroke="none" stroke-width="1" fill="none" fill-rule="evenodd">
        <g id="Layout---Home" transform="translate(-1181.000000, -879.000000)">
            <g id="A-chi-è-rivolto?" transform="translate(1070.000000, 879.000000)">
                <g id="chat" transform="translate(111.370775, 0.000000)">
                    <path d="M31.1838171,81.0053463 C31.1838171,72.592728 24.6685851,65.7087575 16.7052002,65.7087575 C8.74243941,65.7087575 2.22741551,72.5918487 2.22741551,81.0053463 C2.22741551,83.6284917 4.23964073,85.755497 6.72272374,85.755497 L26.6874685,85.755497 C29.1713838,85.755497 31.1838171,83.6284917 31.1838171,81.0053463 Z" id="Fill-1" fill="#CEE8FA"></path>
                    <path d="M28.3768167,87.9829125 L7.26183144,87.9829125 C3.25792165,87.9829125 0,84.8002901 0,80.8889214 C0,71.2907514 7.99329592,63.481342 17.8194341,63.481342 C27.644472,63.481342 35.6386481,71.2907514 35.6386481,80.8889214 C35.6386481,84.8002901 32.3807265,87.9829125 28.3768167,87.9829125 Z M17.8194341,68.3785605 C10.7578531,68.3785605 5.01308431,73.9905524 5.01308431,80.8889214 C5.01308431,82.0996292 6.0213786,83.0846191 7.26183144,83.0846191 L28.3768167,83.0846191 C29.6163893,83.0846191 30.6255638,82.0996292 30.6255638,80.8889214 C30.6255638,73.9905524 24.880795,68.3785605 17.8194341,68.3785605 Z" id="Fill-2" fill="#2D527C"></path>
                    <path d="M16.7052935,67.936173 C9.33621073,67.936173 3.34112326,61.9410855 3.34112326,54.5713571 C3.34112326,47.2022744 9.33621073,41.2071869 16.7052935,41.2071869 C24.0750219,41.2071869 30.0701093,47.2022744 30.0701093,54.5713571 C30.0701093,61.9410855 24.0750219,67.936173 16.7052935,67.936173 Z M16.7052935,46.1102236 C12.0400802,46.1102236 8.24415997,49.9061438 8.24415997,54.572218 C8.24415997,59.237216 12.0400802,63.0331363 16.7052935,63.0331363 C21.3711524,63.0331363 25.1670726,59.237216 25.1670726,54.572218 C25.1670726,49.9061438 21.3711524,46.1102236 16.7052935,46.1102236 Z" id="Fill-3" fill="#2D527C"></path>
                    <path d="M79.0732505,81.0053463 C79.0732505,72.592728 72.5584139,65.7087575 64.5950497,65.7087575 C56.6327259,65.7087575 50.1168489,72.5918487 50.1168489,81.0053463 C50.1168489,83.6284917 52.1300566,85.755497 54.6130683,85.755497 L74.5772392,85.755497 C77.0608751,85.755497 79.0732505,83.6284917 79.0732505,81.0053463 Z" id="Fill-4" fill="#CEE8FA"></path>
                    <path d="M76.266951,87.9829125 L55.1514442,87.9829125 C51.1472155,87.9829125 47.8894334,84.8002901 47.8894334,80.8889214 C47.8894334,71.2907514 55.8829268,63.481342 65.7090876,63.481342 C75.5345882,63.481342 83.5280815,71.2907514 83.5280815,80.8889214 C83.5280815,84.8002901 80.2700794,87.9829125 76.266951,87.9829125 Z M65.7082073,68.3785605 C58.646452,68.3785605 52.9017613,73.9905524 52.9017613,80.8889214 C52.9017613,82.0996292 53.9109607,83.0846191 55.150564,83.0846191 L76.2660707,83.0846191 C77.505674,83.0846191 78.5148734,82.0996292 78.5148734,80.8889214 C78.5148734,73.9905524 72.7699627,68.3785605 65.7082073,68.3785605 Z" id="Fill-5" fill="#2D527C"></path>
                    <path d="M66.8219272,67.936173 C59.4530596,67.936173 53.4579722,61.9410855 53.4579722,54.5713571 C53.4579722,47.2022744 59.4530596,41.2071869 66.8219272,41.2071869 C74.1918708,41.2071869 80.1869583,47.2022744 80.1869583,54.5713571 C80.1869583,61.9410855 74.1918708,67.936173 66.8219272,67.936173 Z M66.8219272,46.1102236 C62.1569291,46.1102236 58.3610089,49.9061438 58.3610089,54.572218 C58.3610089,59.237216 62.1569291,63.0331363 66.8219272,63.0331363 C71.4880013,63.0331363 75.2839216,59.237216 75.2839216,54.572218 C75.2839216,49.9061438 71.4880013,46.1102236 66.8219272,46.1102236 Z" id="Fill-6" fill="#2D527C"></path>
                    <path d="M61.3071519,38.9795902 C60.4326997,38.9795902 59.5794437,38.6457711 58.9230097,38.0152478 L50.677031,30.0993965 C49.6961651,29.1579272 49.6656685,27.6019027 50.6093329,26.6233184 C51.5529973,25.6455973 53.1126498,25.6151716 54.093732,26.5566409 L60.1902409,32.4098048 L60.6946244,28.0462037 C60.8382396,26.806304 61.8909132,25.8697978 63.142139,25.8697978 L68.5772393,25.8697978 L68.5772393,4.91579456 L13.8371345,4.91579456 L13.8371345,25.8697978 L19.2720184,25.8697978 C20.5241095,25.8697978 21.5769993,26.806304 21.7197494,28.0462037 L22.224998,32.4098048 L28.3215069,26.5566409 C29.301724,25.6160348 30.8611602,25.6455973 31.8050409,26.6233184 C32.7478401,27.6019027 32.7182087,29.1579272 31.7382079,30.0993965 L23.4913641,38.0152478 C22.5401296,38.9288808 21.176434,39.2197588 19.9327782,38.7745946 C18.6899875,38.3287832 17.8231054,37.2388539 17.6719201,35.929903 L17.0771282,30.7864555 L13.4601445,30.7864555 C10.9509878,30.7864555 8.90966203,28.7490149 8.90966203,26.245695 L8.90966203,4.53989736 C8.90966203,2.03636159 10.9509878,0 13.4601445,0 L68.9542292,0 C71.4633859,0 73.5047117,2.03636159 73.5047117,4.53989736 L73.5047117,26.245695 C73.5047117,28.7490149 71.4633859,30.7855923 68.9542292,30.7855923 L65.3372456,30.7855923 L64.7415885,35.929903 C64.5904033,37.2388539 63.7243862,38.3287832 62.4807304,38.7745946 C62.0963867,38.9120496 61.699282,38.9795902 61.3071519,38.9795902 Z" id="Fill-7" fill="#2D527C"></path>
                    <path d="M42.4099462,30.0701093 L40.0044276,30.0701093 C38.8229768,30.0701093 37.8660636,29.073194 37.8660636,27.8425961 C37.8660636,26.6127803 38.8229768,25.6152783 40.0044276,25.6152783 L42.4099462,25.6152783 C43.590646,25.6152783 44.5483101,26.6127803 44.5483101,27.8425961 C44.5483101,29.073194 43.590646,30.0701093 42.4099462,30.0701093 Z" id="Fill-8" fill="#2D527C"></path>
                </g>
            </g>
        </g>
    </g>
</svg>