<?xml version="1.0" encoding="UTF-8"?>
<svg width="87px" height="87px" viewBox="0 0 87 87" version="1.1" xmlns="http://www.w3.org/2000/svg" xmlns:xlink="http://www.w3.org/1999/xlink">
    <!-- Generator: Sketch 49 (51002) - http://www.bohemiancoding.com/sketch -->
    <title>power-on</title>
    <desc>Created with Sketch.</desc>
    <defs>
        <polygon id="path-1" points="0.0101601409 0 86.7002078 0 86.7002078 86.8692048 0.0101601409 86.8692048"></polygon>
    </defs>
    <g id="Layout" stroke="none" stroke-width="1" fill="none" fill-rule="evenodd">
        <g id="Layout---Home" transform="translate(-158.000000, -882.000000)">
            <g id="Prima-di-iniziare" transform="translate(49.000000, 882.000000)">
                <g id="power-on" transform="translate(109.143360, 0.000000)">
                    <path d="M43.9914563,31.1838171 C42.4536468,31.1838171 41.2071869,30.0382282 41.2071869,28.6254076 L41.2071869,14.8091948 C41.2071869,13.3963742 42.4536468,12.2507853 43.9914563,12.2507853 C45.529084,12.2507853 46.7757257,13.3963742 46.7757257,14.8091948 L46.7757257,28.6254076 C46.7757257,30.0383952 45.529084,31.1838171 43.9914563,31.1838171" id="Fill-1" fill="#2F4B6C"></path>
                    <path d="M53.8911187,16.7056163 L53.8911187,28.3465413 C53.8911187,28.3986682 53.8878763,28.4501158 53.8871937,28.5024125 C58.6936929,31.8074579 61.8450676,37.3261111 61.8450676,43.5798037 C61.8450676,53.6968252 53.6025512,61.898058 43.4346024,61.898058 C33.2666535,61.898058 25.0239665,53.6968252 25.0239665,43.5798037 C25.0239665,37.3261111 28.1753412,31.8074579 32.982011,28.5024125 C32.9811578,28.4502856 32.9780861,28.398838 32.9780861,28.3465413 L32.9780861,16.7056163 C22.1539919,20.8779708 14.4782008,31.3362788 14.4782008,43.5794641 C14.4782008,59.4915639 27.4424038,72.391004 43.4346024,72.391004 C59.4268009,72.391004 72.391004,59.4915639 72.391004,43.5794641 C72.391004,31.3362788 64.7152129,20.8779708 53.8911187,16.7056163" id="Fill-2" fill="#CDE6F0"></path>
                    <g id="Group-6">
                        <mask id="mask-2" fill="white">
                            <use xlink:href="#path-1"></use>
                        </mask>
                        <g id="Clip-4"></g>
                        <path d="M30.3800067,20.929031 C22.3721223,25.5444665 17.210432,34.2534436 17.210432,43.6680634 C17.210432,58.1095597 28.9367587,69.8587893 43.3501039,69.8587893 C57.7634491,69.8587893 69.4896064,58.109899 69.4896064,43.6680634 C69.4896064,34.253274 64.3280855,25.5444665 56.3202011,20.929031 L56.3202011,27.2986476 C61.2863086,31.2528931 64.2129372,37.2731665 64.2129372,43.6680634 C64.2129372,55.194521 54.8537541,64.5718141 43.3501039,64.5718141 C31.8464537,64.5718141 22.4872705,55.194521 22.4872705,43.6680634 C22.4872705,37.2731665 25.4137298,31.2525538 30.3800067,27.2986476 L30.3800067,20.929031 Z M43.3501039,75.0568593 C26.0760016,75.0568593 12.0224947,60.9759041 12.0224947,43.6680634 C12.0224947,37.2107293 13.9649443,31.0077251 17.6400366,25.7295726 C21.2296144,20.5742586 26.2080835,16.6532677 32.0371257,14.3905964 C32.8350354,14.0812945 33.7340385,14.1854697 34.4401683,14.670037 C35.1462981,15.1544346 35.5682826,15.9567871 35.5682826,16.8142811 L35.572008,28.5638501 C35.5847082,29.4308454 35.164925,30.2472802 34.4532072,30.7399915 C30.2093163,33.6787835 27.6755465,38.5115617 27.6755465,43.6678937 C27.6755465,52.3276676 34.7070414,59.3732351 43.3502732,59.3732351 C51.9935051,59.3732351 59.0251693,52.3280069 59.0251693,43.6678937 C59.0251693,38.5115617 56.4913995,33.6786138 52.2475086,30.7399915 C51.5357907,30.2472802 51.1160076,29.4308454 51.1287078,28.5638501 L51.1317558,28.4442352 L51.1324332,16.8142811 C51.1324332,15.9567871 51.5544177,15.1544346 52.2605475,14.670037 C52.9665079,14.1853 53.8653417,14.0804462 54.6635901,14.3905964 C60.4926323,16.6532677 65.470932,20.5742586 69.0606791,25.7295726 C72.7356021,31.0077251 74.678221,37.2107293 74.678221,43.6680634 C74.677713,60.9759041 60.6240368,75.0568593 43.3501039,75.0568593 Z" id="Fill-3" fill="#2F4B6C" mask="url(#mask-2)"></path>
                        <path d="M43.3501039,86.8692048 C19.4468484,86.8692048 0,67.3847136 0,43.4344327 C0,19.4848305 19.4468484,0 43.3501039,0 C51.4897314,0 59.4241242,2.27420863 66.2945808,6.57643994 C72.9750428,10.7597351 78.3976793,16.6809233 81.9767583,23.6996836 C82.6285313,24.97812 82.1227256,26.5436321 80.8467813,27.1966781 C79.5708369,27.8502331 78.0087152,27.3431002 77.3564342,26.0648334 C70.7939992,13.1937695 57.7634491,5.19823964 43.3501039,5.19823964 C22.307436,5.19823964 5.18793728,22.3510053 5.18793728,43.4344327 C5.18793728,64.5181995 22.307436,81.6711348 43.3501039,81.6711348 C64.3926024,81.6711348 81.5121012,64.5181995 81.5121012,43.4344327 C81.5121012,41.9992245 82.6734053,40.8354826 84.1061545,40.8354826 C85.5387343,40.8354826 86.7002078,41.9992245 86.7002078,43.4344327 C86.6998691,67.3847136 67.2533594,86.8692048 43.3501039,86.8692048" id="Fill-5" fill="#2F4B6C" mask="url(#mask-2)"></path>
                    </g>
                </g>
            </g>
        </g>
    </g>
</svg>