<?xml version="1.0" encoding="UTF-8"?>
<svg width="94px" height="81px" viewBox="0 0 94 81" version="1.1" xmlns="http://www.w3.org/2000/svg" xmlns:xlink="http://www.w3.org/1999/xlink">
    <!-- Generator: Sketch 49 (51002) - http://www.bohemiancoding.com/sketch -->
    <title>store</title>
    <desc>Created with Sketch.</desc>
    <defs>
        <polygon id="path-1" points="0 0 92.4377436 0 92.4377436 80.1869583 0 80.1869583"></polygon>
    </defs>
    <g id="Layout" stroke="none" stroke-width="1" fill="none" fill-rule="evenodd">
        <g id="Layout---Home" transform="translate(-837.000000, -886.000000)">
            <g id="Dove-posso-pagare?" transform="translate(731.000000, 886.000000)">
                <g id="store" transform="translate(106.915944, 0.000000)">
                    <mask id="mask-2" fill="white">
                        <use xlink:href="#path-1"></use>
                    </mask>
                    <g id="Clip-2"></g>
                    <path d="M83.5495158,3.34112326 L10.0010337,3.34112326 C6.32290622,3.34112326 3.34112326,6.30502293 3.34112326,9.96109078 L3.34112326,28.1175533 C3.34112326,32.8863608 7.23026424,36.7523559 12.0280257,36.7523559 C16.8256068,36.7523559 20.7149281,32.8867194 20.7149281,28.1175533 C20.7149281,32.8863608 24.6040691,36.7523559 29.4018306,36.7523559 C34.1994117,36.7523559 38.088733,32.8867194 38.088733,28.1175533 C38.088733,32.8863608 41.9780544,36.7523559 46.7756355,36.7523559 C51.5732166,36.7523559 55.4625379,32.8867194 55.4625379,28.1175533 C55.4625379,32.8863608 59.3520396,36.7523559 64.1494404,36.7523559 C68.9470215,36.7523559 72.8363428,32.8867194 72.8363428,28.1175533 C72.8363428,32.8863608 76.7258445,36.7523559 81.5234256,36.7523559 C86.3208264,36.7523559 90.210328,32.8867194 90.210328,28.1175533 L90.210328,9.96109078 C90.2094263,6.30502293 87.2276433,3.34112326 83.5495158,3.34112326" id="Fill-1" fill="#CDE6F0" mask="url(#mask-2)"></path>
                    <path d="M86.9593629,27.8201095 C86.9593629,31.1197798 84.2871538,33.8043895 81.0025447,33.8043895 C77.7179356,33.8043895 75.0459071,31.1197798 75.0459071,27.8201095 L75.0459071,19.8234151 C75.0459071,18.303811 73.8193016,17.0715133 72.3067168,17.0715133 C70.7943125,17.0715133 69.567707,18.303811 69.567707,19.8234151 L69.567707,27.8201095 C69.567707,31.1197798 66.8953174,33.8043895 63.6107083,33.8043895 C60.3262797,33.8043895 57.6542512,31.1197798 57.6542512,27.8201095 L57.6542512,14.5807991 C57.6542512,13.061195 56.4276456,11.8288972 54.9150608,11.8288972 C53.402476,11.8288972 52.1758705,13.061195 52.1758705,14.5807991 L52.1758705,27.8197467 C52.1758705,31.1195984 49.5034809,33.8040268 46.2190523,33.8040268 C42.9344432,33.8040268 40.2622341,31.1195984 40.2622341,27.8197467 L40.2622341,19.8234151 C40.2622341,18.303811 39.0358092,17.0715133 37.5230438,17.0715133 C36.0100979,17.0715133 34.7838535,18.303811 34.7838535,19.8234151 L34.7838535,27.8201095 C34.7838535,31.1197798 32.111825,33.8043895 28.8270353,33.8043895 C25.5422456,33.8043895 22.8700366,31.1197798 22.8700366,27.8201095 L22.8700366,14.5807991 C22.8700366,13.061195 21.6437921,11.8288972 20.1310268,11.8288972 C18.6180809,11.8288972 17.3918365,13.061195 17.3918365,14.5807991 L17.3918365,27.8197467 C17.3918365,31.1195984 14.7194469,33.8040268 11.4348377,33.8040268 C8.15040917,33.8040268 5.47838065,31.1197798 5.47838065,27.8201095 L5.47838065,9.44973193 C5.47838065,7.27407531 7.24047513,5.50380364 9.40608203,5.50380364 L83.0316615,5.50380364 C85.1972684,5.50380364 86.9593629,7.27407531 86.9593629,9.44973193 L86.9593629,27.8201095 Z M83.0316615,0 L9.40608203,0 C4.21963856,0 0,4.23903885 0,9.44973193 L0,27.8201095 C0,32.0003811 2.23511575,35.6657141 5.567027,37.6754077 L5.567027,77.4350564 C5.567027,78.9546605 6.79345198,80.1869583 8.30621732,80.1869583 L84.1311652,80.1869583 C85.6437499,80.1869583 86.8703555,78.9546605 86.8703555,77.4350564 L86.8703555,49.6648266 C86.8703555,48.1452224 85.6437499,46.9129247 84.1311652,46.9129247 C82.6185804,46.9129247 81.3919748,48.1452224 81.3919748,49.6648266 L81.3919748,74.683336 L60.5645957,74.683336 L60.5645957,51.1011771 C60.5645957,49.581573 59.3379902,48.3492753 57.8254054,48.3492753 L34.6121576,48.3492753 C33.0992117,48.3492753 31.8729673,49.581573 31.8729673,51.1011771 L31.8729673,61.2831413 C31.8729673,62.8027454 33.0992117,64.0350431 34.6121576,64.0350431 C36.1249229,64.0350431 37.3511674,62.8027454 37.3511674,61.2831413 L37.3511674,53.8530789 L55.0865762,53.8530789 L55.0865762,74.683336 L11.0454076,74.683336 L11.0454076,39.2982172 C11.1750371,39.3025704 11.3043055,39.3080118 11.4348377,39.3080118 C14.9120857,39.3080118 18.0318595,37.7405233 20.1310268,35.2724816 C22.2300135,37.7405233 25.3497874,39.3080118 28.8270353,39.3080118 C32.3041027,39.3080118 35.423696,37.7405233 37.5230438,35.2724816 C39.6220305,37.7405233 42.7419849,39.3080118 46.2190523,39.3080118 C49.6961197,39.3080118 52.8160741,37.7405233 54.9150608,35.2724816 C57.0140476,37.7405233 60.1340019,39.3080118 63.6107083,39.3080118 C67.0879562,39.3080118 70.20773,37.7405233 72.3067168,35.2724816 C74.405884,37.7405233 77.5256579,39.3080118 81.0025447,39.3080118 C87.308171,39.3080118 92.4377436,34.1542721 92.4377436,27.8201095 L92.4377436,9.44973193 C92.4377436,4.23903885 88.2182855,0 83.0316615,0 Z" id="Fill-3" fill="#2F4B6C" mask="url(#mask-2)"></path>
                </g>
            </g>
        </g>
    </g>
</svg>