<?xml version="1.0" encoding="UTF-8"?>
<svg width="102px" height="73px" viewBox="0 0 102 73" version="1.1" xmlns="http://www.w3.org/2000/svg" xmlns:xlink="http://www.w3.org/1999/xlink">
    <!-- Generator: Sketch 49 (51002) - http://www.bohemiancoding.com/sketch -->
    <title>visa</title>
    <desc>Created with Sketch.</desc>
    <defs>
        <polygon id="path-1" points="0.0117461365 0.150992496 100.233698 0.150992496 100.233698 72.3793593 0.0117461365 72.3793593"></polygon>
    </defs>
    <g id="Layout" stroke="none" stroke-width="1" fill="none" fill-rule="evenodd">
        <g id="Layout---Home" transform="translate(-497.000000, -888.000000)">
            <g id="Cosa-posso-pagare?" transform="translate(391.000000, 888.000000)">
                <g id="visa" transform="translate(106.915944, 0.000000)">
                    <g id="Group-4">
                        <mask id="mask-2" fill="white">
                            <use xlink:href="#path-1"></use>
                        </mask>
                        <g id="Clip-2"></g>
                        <polygon id="Fill-1" fill="#CDE6F0" mask="url(#mask-2)" points="2.85626885 26.5428506 81.2507667 26.5428506 81.2507667 14.6476307 2.85626885 14.6476307"></polygon>
                        <path d="M5.71234193,23.7122265 L78.3933232,23.7122265 L78.3933232,17.4800015 L5.71234193,17.4800015 L5.71234193,23.7122265 Z M97.377429,0.150992496 L2.85626885,0.150992496 C1.27895849,0.150992496 0,1.41890249 0,2.982587 C0,4.54607742 1.27895849,5.81398742 2.85626885,5.81398742 L94.5213559,5.81398742 L94.5213559,66.727815 L5.71234193,66.727815 L5.71234193,29.3754155 L81.2495921,29.3754155 C82.8267067,29.3754155 84.1058609,28.1073114 84.1058609,26.543821 L84.1058609,14.648407 C84.1058609,13.0849166 82.8267067,11.8170066 81.2495921,11.8170066 L2.85626885,11.8170066 C1.27895849,11.8170066 0,13.0849166 0,14.648407 L0,69.5594095 C0,71.1228999 1.27895849,72.391004 2.85626885,72.391004 L97.377429,72.391004 C98.9547393,72.391004 100.233698,71.1228999 100.233698,69.5594095 L100.233698,2.982587 C100.233698,1.41870842 98.9547393,0.150992496 97.377429,0.150992496 Z" id="Fill-3" fill="#2F4B6C" mask="url(#mask-2)"></path>
                    </g>
                    <path d="M53.4087706,34.6530283 C53.3548281,34.5729238 53.2644594,34.5249404 53.1675221,34.5249404 L45.2791743,34.5249404 C45.158351,34.5249404 45.0500679,34.5994931 45.0072721,34.7121153 L38.0534636,53.0806405 L37.5429006,50.6529179 C37.5434978,50.6449867 37.5436968,50.6364607 37.5436968,50.6283313 C37.5436968,50.5878825 37.5357348,50.549813 37.5208061,50.5147177 L34.8469687,37.6337498 C34.3660641,35.6751543 32.3365512,34.5879929 30.5699833,34.52613 L18.2362539,34.52613 C18.1001038,34.52613 17.9822662,34.6203123 17.9526078,34.7525641 L17.8262111,35.3198391 C17.7921736,35.473505 17.8875185,35.626576 18.041185,35.6634558 C21.1403921,36.4157246 24.0385587,37.5867578 26.6584536,39.1450289 L33.2692991,63.2683908 C33.3037347,63.3940994 33.4185865,63.481342 33.5495614,63.481342 L41.441293,63.481342 C41.5589315,63.481342 41.6652242,63.4107548 41.7100104,63.3020981 L53.4360405,34.9238768 C53.4730637,34.835048 53.4627131,34.7331328 53.4087706,34.6530283" id="Fill-5" fill="#2F4B6C"></path>
                    <path d="M50.1168489,45.6940416 C50.1168489,44.8895711 50.9522583,44.5483101 51.7873248,44.5483101 C52.6227342,44.5483101 53.4579722,44.8895711 53.4579722,45.6940416 L53.4579722,61.197513 C53.4579722,61.9775938 52.6227342,62.3676342 51.7873248,62.3676342 C50.9522583,62.3676342 50.1168489,61.9775938 50.1168489,61.197513 L50.1168489,45.6940416" id="Fill-6" fill="#2F4B6C"></path>
                    <path d="M64.0439694,58.2598218 C64.0439694,55.1928025 56.1345419,55.7253415 56.1345419,49.7945807 C56.1345419,45.9929618 59.403242,44.5483101 62.5217581,44.5483101 C63.8444562,44.5483101 67.4872185,44.8019002 67.4872185,46.7784823 C67.4872185,47.4627697 67.0380643,48.857312 65.9402428,48.857312 C65.0421342,48.857312 64.5678161,47.8938727 62.5217581,47.8938727 C60.7505048,47.8938727 60.0267455,48.6286752 60.0267455,49.4146014 C60.0267455,51.9490817 67.936173,51.4674635 67.936173,57.8546863 C67.936173,61.5043541 65.3161402,63.481342 61.698342,63.481342 C58.4300413,63.481342 55.6853877,61.8591772 55.6853877,60.1860916 C55.6853877,59.3244942 56.4339114,58.0569497 57.3819483,58.0569497 C58.5546621,58.0569497 59.3033856,59.9327045 61.6234497,59.9327045 C62.7715988,59.9325016 64.0439694,59.4762424 64.0439694,58.2598218" id="Fill-7" fill="#2F4B6C"></path>
                    <path d="M76.9818072,55.7427465 L75.1627072,49.2628164 L73.3440062,55.7427465 L76.9818072,55.7427465 Z M67.936173,60.820324 C67.936173,60.7477484 67.9611058,60.6511746 67.9858392,60.5542137 L72.6211533,45.8053183 C72.8952151,44.9591844 74.0165945,44.5483101 75.1627072,44.5483101 C76.3090195,44.5483101 77.4305983,44.9593779 77.7046601,45.8053183 L82.3645081,60.5542137 C82.3896404,60.6511746 82.4143738,60.747942 82.4143738,60.820324 C82.4143738,61.7148415 80.9939998,62.3676342 79.9222866,62.3676342 C79.299564,62.3676342 78.8007077,62.1744865 78.6515096,61.6664578 L77.804192,58.6440258 L72.5463548,58.6440258 L71.6992366,61.6664578 C71.5492406,62.1744865 71.0511822,62.3676342 70.4282602,62.3676342 C69.3567464,62.3676342 67.936173,61.7148415 67.936173,60.820324 Z" id="Fill-8" fill="#2F4B6C"></path>
                </g>
            </g>
        </g>
    </g>
</svg>